<?xml version="1.0" standalone="no"?>
<!DOCTYPE svg PUBLIC "-//W3C//DTD SVG 20010904//EN"
 "http://www.w3.org/TR/2001/REC-SVG-20010904/DTD/svg10.dtd">
<svg version="1.0" xmlns="http://www.w3.org/2000/svg"
 width="260.000000pt" height="260.000000pt" viewBox="0 0 260.000000 260.000000"
 preserveAspectRatio="xMidYMid meet">
<metadata>
Created by potrace 1.14, written by Peter Selinger 2001-2017
</metadata>
<g transform="translate(0.000000,260.000000) scale(0.100000,-0.100000)"
fill="#000000" stroke="none">
<path d="M1360 2572 c-48 -26 -107 -106 -126 -172 -8 -30 -22 -77 -29 -105 -8
-27 -17 -59 -20 -70 -3 -11 -36 -40 -73 -65 -289 -191 -647 -553 -888 -895
-120 -170 -216 -329 -221 -364 -8 -59 121 -385 223 -563 l27 -47 -47 -53 c-53
-60 -81 -133 -72 -183 9 -46 32 -48 85 -8 24 18 50 33 57 33 23 0 16 -46 -9
-63 -21 -15 -20 -16 27 -16 44 -1 54 4 103 46 30 25 60 57 66 70 8 18 17 23
34 20 28 -5 30 8 3 23 -15 8 -28 7 -52 -6 -27 -14 -33 -14 -42 -2 -14 19 -50
38 -73 38 -10 0 -35 -9 -56 -20 -20 -11 -37 -18 -37 -16 0 13 103 76 153 95
70 26 76 26 70 2 -8 -30 25 -54 65 -47 37 5 82 31 82 45 0 5 -10 7 -22 5 -17
-3 -15 -1 5 7 44 17 58 -1 41 -52 -15 -42 -11 -64 9 -52 6 3 -4 -15 -23 -40
-36 -51 -42 -56 -34 -29 2 9 0 6 -7 -8 -6 -14 -15 -33 -20 -42 -5 -10 -9 -22
-9 -28 0 -6 88 -10 249 -10 l250 0 6 23 c4 12 18 34 31 48 28 29 107 254 99
280 -3 9 0 29 6 45 l11 29 9 -24 c5 -14 6 -27 1 -30 -4 -3 -9 -15 -9 -26 -1
-11 -24 -90 -52 -176 -28 -86 -51 -159 -51 -163 0 -3 30 -6 68 -6 l67 1 17 37
c9 20 35 75 56 122 22 47 49 114 61 150 12 36 30 73 40 82 10 9 21 22 23 29 3
8 8 12 11 9 9 -8 -85 -265 -126 -347 -20 -39 -44 -74 -54 -76 -10 -3 44 -5
119 -6 l138 -1 17 37 c10 21 27 39 37 41 17 4 18 -1 13 -37 l-5 -41 251 0 252
0 31 63 c17 34 56 113 88 174 166 328 279 721 363 1263 26 166 27 197 31 616
l3 441 -38 6 c-60 10 -310 8 -403 -3 -128 -16 -267 -46 -398 -86 -64 -20 -124
-38 -133 -41 -11 -3 -26 13 -50 51 -60 99 -138 131 -219 88z m136 -138 c39
-41 42 -69 15 -122 -17 -33 -81 -85 -81 -66 0 5 -5 3 -12 -4 -29 -29 -82 6
-109 71 -14 33 0 70 46 125 22 26 34 32 67 32 34 0 46 -6 74 -36z m1032 26
l45 0 -6 -167 c-22 -566 -112 -1154 -237 -1536 -45 -140 -119 -321 -120 -296
0 9 -16 59 -35 111 l-35 95 24 79 c41 129 94 352 120 500 24 136 25 140 65
182 46 48 50 66 20 91 -18 14 -21 28 -21 101 -1 47 6 181 15 297 9 117 17 243
17 279 l0 67 -217 -6 c-120 -4 -232 -9 -250 -13 l-31 -6 10 43 c5 24 8 60 6
81 -3 34 -1 37 32 47 118 34 377 63 494 55 32 -2 79 -4 104 -4z m-1256 -302
c-3 -40 -15 -109 -28 -152 -23 -78 -32 -186 -16 -186 18 0 43 75 34 100 l-9
24 -7 -28 c-4 -16 -9 -26 -12 -24 -2 3 2 22 10 44 14 39 18 37 30 -17 6 -26
-15 -90 -37 -117 -8 -10 -14 -6 -25 20 -13 30 -15 31 -23 13 -16 -35 0 42 32
154 16 58 32 130 35 160 11 105 21 111 16 9z m291 -67 c-1 -72 -7 -147 -13
-166 -6 -19 -9 -43 -6 -53 4 -10 -1 -38 -9 -63 -9 -24 -15 -53 -13 -64 1 -11
-14 -45 -35 -75 -39 -57 -44 -60 -26 -13 6 15 19 64 29 108 10 44 26 109 35
145 13 51 15 89 11 173 -6 101 2 155 22 143 4 -2 6 -63 5 -135z m-234 18 l14
-24 -27 24 c-14 14 -26 34 -26 45 0 21 0 21 13 0 6 -12 18 -32 26 -45z m260
-95 c1 -48 -26 -151 -36 -140 -3 3 3 25 12 50 14 37 17 65 12 144 -3 67 -3 82
3 47 5 -27 9 -73 9 -101z m-83 118 c-8 -13 -96 -65 -102 -60 -4 5 99 75 105
72 1 -2 0 -7 -3 -12z m-20 -67 c-16 -24 -36 -32 -49 -18 -7 6 55 54 62 47 2
-2 -4 -15 -13 -29z m-160 -2 c-7 -7 -26 7 -26 19 0 6 6 6 15 -2 9 -7 13 -15
11 -17z m48 1 c3 -8 2 -12 -4 -9 -6 3 -10 10 -10 16 0 14 7 11 14 -7z m265
-204 c0 -8 -5 -5 -13 9 -13 24 -13 24 -20 -14 -4 -20 -10 -35 -13 -32 -2 3 1
32 8 64 l12 58 13 -35 c7 -19 13 -42 13 -50z m-703 28 c-8 -13 -20 -50 -27
-83 -11 -57 -17 -65 -124 -175 -203 -209 -336 -374 -490 -609 l-85 -130 44
-113 c24 -62 66 -160 93 -218 31 -65 46 -109 40 -115 -5 -6 -23 -28 -41 -49
l-33 -39 -37 61 c-49 81 -125 243 -170 366 l-37 99 125 186 c149 223 292 403
451 569 101 105 285 272 301 272 2 0 -2 -10 -10 -22z m794 -53 c20 -11 21 -14
7 -15 -10 0 -39 -11 -65 -24 -33 -17 -53 -22 -63 -15 -12 8 -11 11 6 21 11 7
36 13 55 15 37 4 47 9 37 20 -4 3 -19 1 -34 -6 -26 -10 -27 -10 -9 4 24 18 34
18 66 0z m-580 -70 c-6 -19 -16 -32 -22 -29 -12 8 -3 61 15 82 11 13 12 13 15
-2 2 -9 -2 -32 -8 -51z m405 5 c-23 -44 -30 -31 -8 15 10 20 19 32 21 26 2 -5
-4 -24 -13 -41z m-274 -55 c-24 -55 -37 -62 -49 -25 -10 26 -7 33 19 61 16 17
29 36 30 43 0 6 4 0 10 -12 7 -18 4 -35 -10 -67z m-161 -65 c11 -7 19 -5 27 7
11 14 13 15 18 0 9 -21 -12 -57 -33 -57 -9 0 -22 8 -28 18 -18 27 -27 98 -18
134 8 30 9 27 14 -30 3 -40 10 -66 20 -72z m722 116 c16 -11 14 -13 -15 -14
-35 -1 -108 -36 -163 -78 -41 -32 -79 -34 -107 -6 -19 19 -19 24 -7 47 12 23
15 24 30 10 23 -21 40 -19 83 10 20 14 47 30 59 35 34 13 101 11 120 -4z
m-630 -145 c1 -58 -2 -67 -26 -88 -15 -13 -35 -23 -44 -23 -15 1 -14 3 4 18
45 38 55 65 49 138 -4 54 -3 64 5 45 6 -14 11 -54 12 -90z m142 32 c-5 -20
-15 -38 -21 -41 -21 -6 -25 24 -8 64 12 28 18 35 27 26 8 -8 9 -23 2 -49z
m564 35 c20 -20 14 -28 -14 -18 -68 26 -156 -3 -251 -84 -49 -42 -55 -44 -83
-34 -29 10 -85 76 -75 87 3 2 18 -7 33 -21 28 -27 64 -48 80 -48 6 0 37 22 69
49 32 26 72 55 88 64 35 19 136 22 153 5z m-104 -68 c-48 -28 -84 -32 -84 -9
0 14 61 37 100 38 l35 1 -51 -30z m125 -36 c10 -23 9 -25 -8 -19 -34 11 -96
-13 -144 -55 -45 -40 -47 -41 -74 -26 -30 17 -73 51 -73 59 0 16 35 13 65 -4
l35 -21 48 30 c48 31 108 60 128 61 6 1 16 -11 23 -25z m383 -39 c3 -13 2 -22
-3 -20 -4 3 -19 1 -33 -5 -32 -12 -33 -4 -4 27 27 29 35 29 40 -2z m-1243 -30
c8 -4 8 -12 1 -26 -18 -33 -30 -21 -29 29 0 37 2 42 9 26 5 -12 13 -25 19 -29z
m849 3 c26 -26 13 -46 -41 -66 -73 -28 -98 -30 -110 -10 -14 22 1 40 56 67 48
24 77 27 95 9z m-222 -89 c40 -80 50 -83 162 -43 52 18 99 39 104 46 11 18 10
4 -2 -27 -9 -23 -15 -27 -40 -23 -16 3 -28 3 -26 0 9 -8 -128 -73 -148 -70
-27 4 -59 54 -85 129 -16 49 -17 58 -5 48 9 -7 26 -34 40 -60z m-599 9 c-9
-24 -17 -53 -19 -66 -4 -33 -22 -28 -29 7 -4 19 -2 32 6 35 6 2 20 21 29 41
24 49 33 36 13 -17z m1161 23 c-4 -12 -301 -240 -313 -241 -15 0 17 28 162
141 130 102 159 121 151 100z m-644 -155 c-19 -22 -34 -32 -44 -28 -32 13 -80
5 -104 -17 -14 -13 -37 -52 -52 -86 -18 -41 -32 -61 -41 -58 -7 3 -31 -4 -53
-16 -22 -11 -40 -18 -40 -16 0 23 56 108 76 117 14 7 35 30 46 52 52 102 120
166 178 166 16 0 20 -6 20 -34 0 -39 -20 -60 -49 -51 -28 8 -86 -21 -107 -53
l-17 -27 24 21 c39 35 68 46 100 39 47 -11 69 15 70 84 l2 56 9 -57 c10 -55 9
-59 -18 -92z m-471 -118 l15 -48 -28 23 c-32 25 -34 38 -23 163 l8 79 6 -85
c4 -47 14 -106 22 -132z m652 60 c35 16 45 15 45 -6 0 -20 -48 -52 -78 -52
-13 0 -22 9 -27 28 l-8 27 -6 -24 c-6 -23 -36 -50 -44 -41 -2 3 -7 21 -11 40
-3 21 -2 30 3 22 6 -11 11 -10 25 3 9 9 16 24 16 33 0 12 7 9 30 -13 26 -25
33 -27 55 -17z m125 23 c0 -10 -8 -21 -17 -24 -10 -2 -25 -8 -33 -11 -11 -4
-16 0 -17 13 -1 13 8 22 30 29 18 5 33 10 35 11 1 1 2 -7 2 -18z m-393 -42
c-15 -12 -32 -30 -38 -41 -9 -18 -6 -17 24 6 33 25 96 50 105 42 2 -3 -18 -14
-45 -26 -54 -24 -94 -59 -125 -108 -24 -39 -42 -33 -32 11 8 38 25 67 40 67 5
0 23 14 39 30 36 38 21 40 -18 3 -26 -24 -28 -25 -18 -6 14 28 39 42 71 42
l25 0 -28 -20z m413 -112 c0 -11 -49 -29 -86 -32 -17 -1 -35 -5 -40 -7 -17
-11 -112 -19 -117 -11 -3 4 -8 25 -12 45 -6 32 -4 39 11 45 11 3 22 11 26 17
5 7 8 7 8 -1 0 -7 8 -13 19 -13 19 0 149 45 160 55 5 5 30 -75 31 -98z m-366
23 c-32 -33 -62 -67 -67 -76 -8 -14 -11 -14 -28 2 -19 17 -19 18 13 52 26 27
117 81 137 82 2 0 -23 -27 -55 -60z m36 -46 c-21 -22 -43 -51 -50 -63 -11 -22
-12 -22 -25 -4 -17 22 -5 47 33 67 15 9 23 15 19 16 -4 0 4 11 20 24 45 38 47
8 3 -40z m-451 -28 c-2 -20 -2 -20 -6 2 -2 12 -9 22 -14 22 -5 0 -9 5 -9 11 0
8 5 8 15 -1 8 -7 14 -22 14 -34z m226 14 c7 -11 -61 -100 -76 -100 -5 0 -9 14
-9 30 0 49 65 102 85 70z m277 -2 c3 -7 2 -47 -2 -88 l-7 -75 -2 65 c-2 82
-21 62 -21 -22 0 -32 -4 -58 -10 -58 -12 0 -12 17 -1 83 6 38 5 50 -6 54 -11
4 -9 11 8 29 25 27 35 30 41 12z m291 -42 c5 -32 1 -94 -9 -144 -9 -42 -127
-72 -141 -36 -11 28 16 88 67 152 28 34 57 62 64 62 7 0 16 -15 19 -34z m-492
-30 c-10 -12 -28 -40 -40 -62 -25 -51 -47 -74 -69 -73 -12 0 -10 3 6 10 16 6
35 35 60 88 29 63 39 78 49 69 11 -9 10 -15 -6 -32z m380 24 c-13 -11 -31 -20
-40 -20 -14 0 -14 2 -1 10 8 5 10 10 4 10 -6 0 -17 -7 -24 -15 -7 -8 -21 -15
-31 -15 -22 0 -34 -16 -17 -23 8 -3 5 -6 -5 -6 -15 -1 -18 5 -15 32 l3 32 70
6 c39 3 72 6 75 7 3 1 -6 -8 -19 -18z m-435 -55 c-17 -44 -47 -75 -74 -75 -7
0 0 11 16 25 19 16 34 41 41 71 9 34 15 44 23 36 8 -8 6 -23 -6 -57z m134 -76
c0 -54 -4 -109 -10 -123 -5 -14 -6 -26 -1 -26 13 0 32 77 26 107 l-5 28 10
-25 c8 -18 8 -37 -1 -68 -13 -48 -26 -57 -64 -48 l-24 6 19 33 c19 32 45 166
37 190 -2 7 -11 -1 -21 -18 -17 -29 -17 -12 -1 28 4 9 3 17 -2 17 -6 0 -17
-24 -26 -52 -14 -48 -15 -49 -10 -13 7 61 12 73 31 78 35 7 42 -12 42 -114z
m53 62 c-3 -33 0 -73 6 -94 10 -30 9 -46 -5 -92 -10 -30 -22 -55 -27 -55 -5 0
-6 8 -2 18 21 51 27 93 16 123 -12 36 -14 81 -5 128 11 53 22 34 17 -28z m-31
22 c-3 -16 -7 -22 -10 -15 -4 13 4 42 11 42 2 0 2 -12 -1 -27z m-332 -45 c17
-32 19 -39 7 -29 -22 18 -32 8 -18 -17 17 -32 13 -39 -6 -12 -9 13 -16 38 -15
56 2 18 -2 35 -8 39 -5 3 -10 11 -10 17 0 18 24 -8 50 -54z m-75 -9 c16 -30
16 -30 -4 -19 -12 6 -21 20 -21 30 0 28 7 25 25 -11z m615 3 c0 -10 -6 -27
-14 -37 -13 -18 -14 -18 -25 4 -16 29 -7 51 19 51 13 0 20 -7 20 -18z m-294
-75 c-9 -30 -23 -61 -32 -68 -14 -11 -13 -6 3 26 11 22 24 55 28 73 4 18 9 31
12 28 3 -2 -2 -29 -11 -59z m310 -9 c0 -49 -2 -63 -7 -43 -7 30 -7 30 -8 3 0
-15 3 -38 8 -51 8 -20 6 -29 -10 -43 -10 -9 -20 -13 -20 -8 -6 40 5 137 19
171 9 24 17 43 17 43 1 0 1 -33 1 -72z m-616 27 c36 -37 31 -46 -9 -18 -25 17
-23 6 5 -27 7 -8 16 -28 20 -44 6 -26 5 -27 -15 -17 -29 16 -27 3 4 -21 14
-11 25 -26 25 -35 0 -17 -3 -16 -52 17 -31 21 -36 29 -30 50 4 14 6 49 5 78 0
28 2 52 6 52 4 0 22 -16 41 -35z m530 7 c0 -28 -29 -62 -53 -61 -12 0 -16 3
-9 6 6 2 12 14 11 26 0 12 -3 16 -6 9 -2 -6 -9 -9 -15 -6 -6 4 4 15 23 25 43
23 49 23 49 1z m-261 -41 c-12 -23 -29 -41 -37 -41 -9 0 -3 13 17 35 17 20 31
41 31 47 0 6 3 9 6 5 3 -3 -4 -24 -17 -46z m496 -66 c-2 -36 -9 -73 -14 -83
-7 -12 -9 -7 -4 21 5 34 4 37 -16 34 -26 -4 -41 -23 -41 -52 0 -17 2 -18 11
-5 8 12 10 10 5 -10 -5 -23 -4 -23 8 -7 12 16 14 16 20 2 4 -11 2 -14 -6 -9
-7 5 -9 2 -5 -9 3 -8 0 -21 -8 -27 -11 -9 -16 -4 -24 27 -16 60 -22 127 -14
139 6 8 69 38 90 43 1 1 0 -28 -2 -64z m-240 9 c-10 -7 -23 -15 -29 -18 -7 -3
-4 -9 7 -16 19 -12 23 -35 7 -45 -6 -3 -24 4 -41 16 -23 16 -28 24 -17 30 7 5
9 9 3 9 -5 0 7 12 28 27 20 14 37 31 37 37 0 6 6 2 12 -8 9 -15 7 -22 -7 -32z
m-485 -18 c0 -26 -6 -18 -14 19 -5 22 -4 26 4 15 5 -8 10 -24 10 -34z m615 -2
c1 -39 -1 -43 -12 -27 -8 9 -11 24 -8 31 3 8 5 20 5 28 0 8 3 14 8 14 4 0 7
-21 7 -46z m-559 -25 c8 -17 11 -28 5 -24 -6 3 -15 -4 -20 -17 -8 -19 -10 -15
-10 25 -1 26 1 47 4 47 2 0 12 -14 21 -31z m-174 -56 c-10 -16 -27 -52 -37
-81 -22 -67 -29 -63 -11 6 15 56 58 132 64 114 2 -6 -5 -24 -16 -39z m388 13
c-5 -13 -15 -20 -26 -18 -11 2 -34 6 -51 9 -32 5 -40 13 -27 26 4 3 30 6 59 5
49 -1 53 -3 45 -22z m15 -51 l-15 -40 5 44 c6 49 18 75 23 51 1 -9 -4 -33 -13
-55z m127 48 c10 -9 18 -24 18 -34 0 -24 -48 -38 -61 -18 -12 19 -11 39 1 39
6 0 10 7 10 15 0 19 9 19 32 -2z m-79 -38 c-20 -41 -28 -39 -18 4 4 17 13 31
21 31 11 0 11 -6 -3 -35z m-113 -1 c0 -2 -9 0 -20 6 -11 6 -20 13 -20 16 0 2
9 0 20 -6 11 -6 20 -13 20 -16z m296 -12 c-15 -15 -16 -15 -16 5 0 12 6 23 13
26 19 6 21 -13 3 -31z m-506 19 c0 -5 -7 -12 -16 -15 -14 -5 -15 -4 -4 9 14
17 20 19 20 6z m110 -74 c13 -54 12 -60 -10 -108 -13 -28 -27 -52 -31 -55 -4
-2 -12 32 -18 76 -11 74 -10 82 9 121 12 23 25 37 29 33 4 -5 14 -35 21 -67z
m473 -1 c7 3 4 -1 -5 -9 -10 -8 -18 -25 -18 -38 -1 -18 -4 -15 -15 16 -16 45
-20 89 -6 67 6 -11 10 -10 17 5 6 15 9 12 12 -15 2 -21 8 -30 15 -26z m-693
30 c0 -8 -9 -45 -21 -82 -37 -122 -53 -104 -23 27 10 45 20 69 30 69 8 0 14
-6 14 -14z m141 1 c-1 -4 -1 -21 -1 -38 0 -17 -4 -28 -10 -24 -14 8 -13 78 1
73 6 -2 10 -7 10 -11z m308 -43 c-5 -26 -15 -54 -21 -62 -8 -9 -12 -39 -11
-76 2 -33 -1 -79 -5 -101 -7 -35 -9 -29 -15 55 -7 89 -6 100 20 167 30 80 45
88 32 17z m309 16 c4 0 13 5 20 12 9 9 9 4 2 -22 -5 -18 -12 -35 -16 -39 -4
-3 -3 4 0 17 5 13 3 22 -3 22 -6 0 -11 -6 -11 -14 0 -8 -3 -22 -7 -32 -4 -12
-3 -15 5 -10 8 5 10 2 6 -8 -3 -9 -11 -13 -17 -9 -5 3 -8 2 -5 -3 3 -5 -1 -22
-9 -39 -13 -28 -13 -23 -9 58 5 95 14 124 27 89 5 -12 12 -22 17 -22z m-451 8
c-3 -8 -6 -5 -6 6 -1 11 2 17 5 13 3 -3 4 -12 1 -19z m32 -61 c-8 -36 -17 -57
-25 -57 -16 0 -17 2 -3 60 14 66 18 75 29 64 7 -7 6 -30 -1 -67z m140 13 c0
-9 -4 -8 -9 5 -5 11 -9 27 -9 35 0 9 4 8 9 -5 5 -11 9 -27 9 -35z m64 21 c9
-16 16 -40 16 -53 -1 -20 -2 -19 -10 7 -6 23 -7 19 -4 -20 l5 -50 -30 63 c-17
35 -30 67 -30 73 0 21 37 7 53 -20z m-143 12 c-1 -5 -12 -28 -26 -53 l-25 -45
6 44 c3 24 8 48 11 53 6 10 34 11 34 1z m-102 -17 c5 -6 -21 -66 -29 -66 -10
0 -14 8 -24 54 -6 27 -5 28 22 21 15 -3 29 -8 31 -9z m298 -27 c-9 -22 -15
-27 -15 -16 -1 21 18 61 25 54 3 -3 -2 -20 -10 -38z m42 -34 c-1 -40 -21 -75
-42 -75 -6 0 -4 5 4 10 8 5 10 10 4 10 -7 0 -6 20 4 61 16 66 31 63 30 -6z
m-628 -9 c-6 -19 -18 -40 -27 -48 -15 -11 -16 -11 -10 5 4 11 10 31 13 45 4
15 12 33 18 41 16 20 19 -3 6 -43z m31 23 c-5 -13 -10 -19 -10 -12 -1 15 10
45 15 40 3 -2 0 -15 -5 -28z m71 -61 c-3 -40 -7 -56 -13 -47 -5 8 -6 30 -3 49
13 80 20 79 16 -2z m-196 33 c-4 -6 -73 -61 -154 -122 -81 -62 -167 -129 -191
-148 -24 -20 -42 -30 -40 -22 5 14 381 311 388 306 1 -2 0 -8 -3 -14z m544
-93 c-13 -57 -27 -107 -31 -112 -4 -4 1 29 12 75 10 46 21 99 25 117 3 18 9
31 11 28 3 -3 -5 -51 -17 -108z m207 80 c-3 -7 -5 -2 -5 12 0 14 2 19 5 13 2
-7 2 -19 0 -25z m30 -5 c-3 -10 -5 -4 -5 12 0 17 2 24 5 18 2 -7 2 -21 0 -30z
m-178 -74 c1 -22 -5 -42 -14 -49 -8 -7 -15 -9 -15 -4 0 4 -7 -1 -15 -12 -8
-10 -15 -15 -15 -11 0 10 30 137 37 157 8 19 20 -29 22 -81z m251 87 c0 -2 -8
-10 -17 -17 -16 -13 -17 -12 -4 4 13 16 21 21 21 13z m-115 -46 c-7 -21 14
-104 24 -94 3 3 11 22 18 42 l12 37 -6 -38 c-4 -31 -3 -36 11 -31 27 10 18
-22 -9 -34 -14 -7 -27 -12 -29 -12 -2 0 -14 24 -26 54 -18 46 -20 57 -8 75 16
26 21 27 13 1z m22 -22 c-3 -7 -5 -2 -5 12 0 14 2 19 5 13 2 -7 2 -19 0 -25z
m-103 -32 c-3 -14 -10 -26 -15 -26 -11 0 -11 3 1 36 13 33 23 26 14 -10z m44
-24 c3 -34 53 -79 72 -67 15 9 1 -46 -15 -64 -11 -11 -16 -8 -30 20 -10 19
-28 48 -40 65 -16 21 -21 38 -18 57 7 36 27 29 31 -11z m-63 -42 c3 -5 -3 -10
-14 -10 -11 0 -23 -4 -26 -10 -3 -5 -12 -10 -18 -10 -13 1 30 40 44 40 4 0 11
-4 14 -10z m25 -50 c-7 -17 -23 -39 -36 -49 -12 -10 -26 -31 -29 -47 -6 -27
-5 -28 7 -8 27 43 88 107 89 93 6 -92 -15 -162 -50 -174 -27 -8 -16 -45 15
-45 12 0 26 -4 29 -10 4 -6 -8 -10 -27 -10 -31 0 -36 5 -61 55 -25 51 -26 59
-15 104 7 33 17 51 29 54 10 3 26 21 35 41 21 43 32 40 14 -4z m-115 -9 c-3
-12 -23 -32 -43 -46 -20 -14 -47 -42 -59 -62 -26 -44 -30 -38 -8 13 13 31 105
127 113 119 2 -2 1 -13 -3 -24z m165 -132 c-12 -69 -12 -69 -43 -68 -30 2 -30
2 -5 6 24 4 28 11 38 59 7 31 9 68 6 82 -6 24 -5 25 5 8 9 -14 9 -36 -1 -87z
m-150 61 c0 -5 -3 -9 -7 -9 -21 3 -34 -4 -64 -33 -25 -25 -29 -27 -20 -10 11
21 66 62 84 62 4 0 7 -4 7 -10z m-164 -47 c-10 -10 -19 5 -10 18 6 11 8 11 12
0 2 -7 1 -15 -2 -18z m143 -17 c-9 -8 -10 -7 -5 7 3 10 7 24 7 30 1 7 3 4 6
-7 3 -10 -1 -23 -8 -30z m-928 -29 c-25 -39 -27 -31 -4 25 12 29 19 37 21 25
2 -10 -6 -32 -17 -50z m-253 23 c17 -27 10 -25 -19 6 -13 14 -17 23 -9 19 9
-3 21 -14 28 -25z m994 -47 l4 -63 -41 0 -42 0 36 70 c20 38 37 66 38 62 1 -4
3 -35 5 -69z m68 -40 c30 -8 24 -23 -10 -23 -28 0 -30 2 -29 38 0 33 1 35 10
14 5 -13 18 -26 29 -29z"/>
<path d="M1487 2370 c-9 -22 -17 -48 -17 -57 0 -9 -10 -28 -22 -41 -23 -25
-23 -25 -1 -13 32 16 62 58 69 98 10 51 -9 59 -29 13z"/>
<path d="M1260 1716 c-15 -39 -12 -46 6 -13 9 16 13 31 10 34 -3 3 -10 -6 -16
-21z"/>
<path d="M1145 1641 c-3 -6 -10 -9 -15 -6 -5 3 -11 1 -14 -4 -4 -5 -1 -13 5
-16 12 -8 47 21 37 30 -3 4 -9 1 -13 -4z"/>
<path d="M1764 1761 c5 -8 56 -3 56 5 0 2 -14 4 -31 4 -16 0 -28 -4 -25 -9z"/>
<path d="M1900 1590 c-12 -8 -10 -10 8 -10 13 0 20 4 17 10 -7 12 -6 12 -25 0z"/>
<path d="M1893 1497 c23 -24 44 -20 34 7 -4 9 -18 16 -31 16 l-25 0 22 -23z"/>
<path d="M1880 1260 c-13 -9 -13 -10 0 -10 8 0 22 5 30 10 13 9 13 10 0 10 -8
0 -22 -5 -30 -10z"/>
<path d="M1884 1189 c-18 -9 -49 -87 -39 -98 3 -2 25 2 50 9 41 12 44 15 39
39 -15 68 -14 67 -50 50z"/>
<path d="M1570 1160 c-9 -6 -10 -10 -3 -10 6 0 15 5 18 10 8 12 4 12 -15 0z"/>
<path d="M1620 1125 c-11 -13 -10 -14 4 -9 9 3 16 10 16 15 0 13 -6 11 -20 -6z"/>
<path d="M1358 1053 c-17 -19 -41 -63 -35 -63 2 0 18 18 36 40 31 39 30 58 -1
23z"/>
<path d="M1635 1059 c-4 -6 -5 -12 -2 -15 2 -3 7 2 10 11 7 17 1 20 -8 4z"/>
<path d="M1901 1005 c-29 -34 -35 -47 -44 -107 -4 -24 -1 -27 17 -24 49 10 53
15 60 88 4 38 5 72 3 74 -2 3 -18 -11 -36 -31z m15 -42 c-7 -27 -18 -59 -24
-69 -14 -24 -15 -13 -2 18 5 13 14 43 20 67 6 23 13 41 15 39 2 -2 -2 -27 -9
-55z"/>
<path d="M1771 734 c0 -11 3 -14 6 -6 3 7 2 16 -1 19 -3 4 -6 -2 -5 -13z"/>
<path d="M1903 800 c-34 -16 -42 -51 -10 -42 17 4 55 49 46 55 -2 2 -18 -4
-36 -13z"/>
<path d="M1626 664 c-4 -9 -4 -19 -1 -22 2 -3 7 3 11 12 4 9 4 19 1 22 -2 3
-7 -3 -11 -12z"/>
<path d="M1307 620 c-4 -14 -7 -35 -7 -48 0 -14 -4 -21 -11 -16 -7 4 -9 0 -6
-12 3 -11 9 -37 13 -58 l7 -39 19 38 c13 24 18 47 13 64 -3 14 -9 42 -13 61
-8 33 -8 34 -15 10z"/>
<path d="M1737 471 c-4 -17 -3 -21 5 -13 5 5 8 16 6 23 -3 8 -7 3 -11 -10z"/>
<path d="M1621 410 c-1 -8 -4 -26 -7 -40 -5 -19 -4 -22 5 -14 7 6 11 24 8 40
-2 16 -5 22 -6 14z"/>
<path d="M1430 30 c0 -5 5 -10 11 -10 5 0 7 5 4 10 -3 6 -8 10 -11 10 -2 0 -4
-4 -4 -10z"/>
<path d="M550 139 c-14 -24 -9 -31 24 -34 17 -2 30 4 42 22 9 14 11 22 5 19
-6 -4 -11 -2 -11 3 0 20 -49 12 -60 -10z m53 -14 c-3 -9 -8 -14 -10 -11 -3 3
-2 9 2 15 9 16 15 13 8 -4z"/>
<path d="M530 67 c0 -7 -11 -14 -25 -15 -26 -2 -79 -31 -71 -39 2 -2 23 5 45
15 23 11 41 17 41 12 0 -4 -15 -14 -32 -21 l-33 -13 29 -4 c16 -2 35 2 42 10
18 18 29 68 15 68 -6 0 -11 -6 -11 -13z"/>
</g>
</svg>
